<mxfile host="Electron" modified="2023-09-08T20:11:11.883Z" agent="Mozilla/5.0 (Macintosh; Intel Mac OS X 10_15_7) AppleWebKit/537.36 (KHTML, like Gecko) draw.io/21.6.8 Chrome/114.0.5735.289 Electron/25.5.0 Safari/537.36" etag="9gdIbTiqERT9vMnoQLk9" version="21.6.8" type="device">
  <diagram id="l6fLpSyLQ2XequCTy9tS" name="Page-1">
    <mxGraphModel dx="2768" dy="379" grid="1" gridSize="10" guides="1" tooltips="1" connect="1" arrows="1" fold="1" page="1" pageScale="1" pageWidth="827" pageHeight="1169" math="0" shadow="0">
      <root>
        <mxCell id="0" />
        <mxCell id="1" parent="0" />
        <mxCell id="BlHrWK3ngbtcq9nJyILt-4" value="ROAD_DATE" style="edgeStyle=orthogonalEdgeStyle;rounded=0;orthogonalLoop=1;jettySize=auto;html=1;entryX=0.5;entryY=0;entryDx=0;entryDy=0;" edge="1" parent="1" source="CVK_DnbALnRQpaXqQVXa-2" target="BlHrWK3ngbtcq9nJyILt-1">
          <mxGeometry relative="1" as="geometry" />
        </mxCell>
        <mxCell id="CVK_DnbALnRQpaXqQVXa-2" value="Road" style="ellipse;whiteSpace=wrap;html=1;" parent="1" vertex="1">
          <mxGeometry x="-600" y="50" width="120" height="60" as="geometry" />
        </mxCell>
        <mxCell id="CVK_DnbALnRQpaXqQVXa-13" value="IS_LOCATED" style="edgeStyle=orthogonalEdgeStyle;rounded=0;orthogonalLoop=1;jettySize=auto;html=1;entryX=0.717;entryY=0.95;entryDx=0;entryDy=0;entryPerimeter=0;" parent="1" source="CVK_DnbALnRQpaXqQVXa-3" target="CVK_DnbALnRQpaXqQVXa-2" edge="1">
          <mxGeometry relative="1" as="geometry">
            <mxPoint x="-490" y="130" as="targetPoint" />
          </mxGeometry>
        </mxCell>
        <mxCell id="CVK_DnbALnRQpaXqQVXa-3" value="Points of interest" style="ellipse;whiteSpace=wrap;html=1;" parent="1" vertex="1">
          <mxGeometry x="-430" y="90" width="120" height="60" as="geometry" />
        </mxCell>
        <mxCell id="BgKfWiFMnTX2AtoJ_OBd-2" style="edgeStyle=orthogonalEdgeStyle;rounded=0;orthogonalLoop=1;jettySize=auto;html=1;entryX=0.5;entryY=0;entryDx=0;entryDy=0;" parent="1" source="CVK_DnbALnRQpaXqQVXa-4" target="BgKfWiFMnTX2AtoJ_OBd-1" edge="1">
          <mxGeometry relative="1" as="geometry" />
        </mxCell>
        <mxCell id="BgKfWiFMnTX2AtoJ_OBd-3" value="HAS_WEATHER" style="edgeLabel;html=1;align=center;verticalAlign=middle;resizable=0;points=[];" parent="BgKfWiFMnTX2AtoJ_OBd-2" vertex="1" connectable="0">
          <mxGeometry x="0.08" y="3" relative="1" as="geometry">
            <mxPoint as="offset" />
          </mxGeometry>
        </mxCell>
        <mxCell id="jJKXX-mgVOs7kS4YwXCo-3" style="edgeStyle=orthogonalEdgeStyle;rounded=0;orthogonalLoop=1;jettySize=auto;html=1;" parent="1" source="CVK_DnbALnRQpaXqQVXa-4" target="jJKXX-mgVOs7kS4YwXCo-1" edge="1">
          <mxGeometry relative="1" as="geometry" />
        </mxCell>
        <mxCell id="jJKXX-mgVOs7kS4YwXCo-4" value="HAS_INCIDENT" style="edgeLabel;html=1;align=center;verticalAlign=middle;resizable=0;points=[];" parent="jJKXX-mgVOs7kS4YwXCo-3" vertex="1" connectable="0">
          <mxGeometry y="-1" relative="1" as="geometry">
            <mxPoint as="offset" />
          </mxGeometry>
        </mxCell>
        <mxCell id="zzLDpk-sGfUP1zNuHT5k-4" value="HAS_TRAFFIC_SITUATION" style="edgeStyle=orthogonalEdgeStyle;rounded=0;orthogonalLoop=1;jettySize=auto;html=1;entryX=0.579;entryY=1.05;entryDx=0;entryDy=0;entryPerimeter=0;" parent="1" source="CVK_DnbALnRQpaXqQVXa-4" target="CVK_DnbALnRQpaXqQVXa-5" edge="1">
          <mxGeometry relative="1" as="geometry" />
        </mxCell>
        <mxCell id="CVK_DnbALnRQpaXqQVXa-4" value="Time" style="ellipse;whiteSpace=wrap;html=1;" parent="1" vertex="1">
          <mxGeometry x="-815" y="160" width="150" height="60" as="geometry" />
        </mxCell>
        <mxCell id="CVK_DnbALnRQpaXqQVXa-5" value="Traffic Situation" style="ellipse;whiteSpace=wrap;html=1;" parent="1" vertex="1">
          <mxGeometry x="-800" y="60" width="120" height="60" as="geometry" />
        </mxCell>
        <mxCell id="BgKfWiFMnTX2AtoJ_OBd-1" value="Weather" style="ellipse;whiteSpace=wrap;html=1;" parent="1" vertex="1">
          <mxGeometry x="-800" y="270" width="120" height="60" as="geometry" />
        </mxCell>
        <mxCell id="uM7hI6JyogQLXGNQNtPG-5" style="edgeStyle=orthogonalEdgeStyle;rounded=0;orthogonalLoop=1;jettySize=auto;html=1;entryX=0.342;entryY=0.008;entryDx=0;entryDy=0;entryPerimeter=0;" parent="1" source="jJKXX-mgVOs7kS4YwXCo-1" target="CVK_DnbALnRQpaXqQVXa-2" edge="1">
          <mxGeometry relative="1" as="geometry" />
        </mxCell>
        <mxCell id="uM7hI6JyogQLXGNQNtPG-6" value="IS_NEARBY" style="edgeLabel;html=1;align=center;verticalAlign=middle;resizable=0;points=[];" parent="uM7hI6JyogQLXGNQNtPG-5" vertex="1" connectable="0">
          <mxGeometry x="-0.3215" y="-1" relative="1" as="geometry">
            <mxPoint as="offset" />
          </mxGeometry>
        </mxCell>
        <mxCell id="jJKXX-mgVOs7kS4YwXCo-1" value="Incident&lt;br&gt;" style="ellipse;whiteSpace=wrap;html=1;" parent="1" vertex="1">
          <mxGeometry x="-990" y="10" width="120" height="55" as="geometry" />
        </mxCell>
        <mxCell id="jJKXX-mgVOs7kS4YwXCo-5" value="Temperature" style="ellipse;whiteSpace=wrap;html=1;" parent="1" vertex="1">
          <mxGeometry x="-960" y="260" width="120" height="60" as="geometry" />
        </mxCell>
        <mxCell id="jJKXX-mgVOs7kS4YwXCo-6" value="HAS_TEMPERATURE" style="endArrow=classic;html=1;rounded=0;exitX=0;exitY=1;exitDx=0;exitDy=0;entryX=0.5;entryY=0;entryDx=0;entryDy=0;" parent="1" source="CVK_DnbALnRQpaXqQVXa-4" target="jJKXX-mgVOs7kS4YwXCo-5" edge="1">
          <mxGeometry width="50" height="50" relative="1" as="geometry">
            <mxPoint x="-700" y="460" as="sourcePoint" />
            <mxPoint x="-520" y="250" as="targetPoint" />
          </mxGeometry>
        </mxCell>
        <mxCell id="zzLDpk-sGfUP1zNuHT5k-10" style="edgeStyle=orthogonalEdgeStyle;rounded=0;orthogonalLoop=1;jettySize=auto;html=1;entryX=1;entryY=0.5;entryDx=0;entryDy=0;" parent="1" source="CVK_DnbALnRQpaXqQVXa-2" target="CVK_DnbALnRQpaXqQVXa-2" edge="1">
          <mxGeometry relative="1" as="geometry">
            <Array as="points">
              <mxPoint x="-540" y="20" />
              <mxPoint x="-460" y="20" />
              <mxPoint x="-460" y="80" />
            </Array>
          </mxGeometry>
        </mxCell>
        <mxCell id="zzLDpk-sGfUP1zNuHT5k-11" value="IS_CONNECTED" style="edgeLabel;html=1;align=center;verticalAlign=middle;resizable=0;points=[];" parent="zzLDpk-sGfUP1zNuHT5k-10" vertex="1" connectable="0">
          <mxGeometry x="-0.0118" y="-2" relative="1" as="geometry">
            <mxPoint as="offset" />
          </mxGeometry>
        </mxCell>
        <mxCell id="BlHrWK3ngbtcq9nJyILt-2" style="edgeStyle=orthogonalEdgeStyle;rounded=0;orthogonalLoop=1;jettySize=auto;html=1;entryX=1;entryY=0.5;entryDx=0;entryDy=0;" edge="1" parent="1" source="BlHrWK3ngbtcq9nJyILt-1" target="CVK_DnbALnRQpaXqQVXa-4">
          <mxGeometry relative="1" as="geometry" />
        </mxCell>
        <mxCell id="BlHrWK3ngbtcq9nJyILt-3" value="DATE_TIME" style="edgeLabel;html=1;align=center;verticalAlign=middle;resizable=0;points=[];" vertex="1" connectable="0" parent="BlHrWK3ngbtcq9nJyILt-2">
          <mxGeometry x="0.1032" relative="1" as="geometry">
            <mxPoint x="1" as="offset" />
          </mxGeometry>
        </mxCell>
        <mxCell id="BlHrWK3ngbtcq9nJyILt-1" value="Date" style="ellipse;whiteSpace=wrap;html=1;" vertex="1" parent="1">
          <mxGeometry x="-550" y="160" width="150" height="60" as="geometry" />
        </mxCell>
      </root>
    </mxGraphModel>
  </diagram>
</mxfile>
